# Blender 4.0.2
# www.blender.org
mtllib test.mtl
o Cube
v 0.435488 1.000000 -0.435488
v 0.982573 -0.762877 -0.762877
v 0.435488 1.000000 0.435488
v 0.982573 -0.762877 0.762877
v -0.435488 1.000000 -0.435488
v -1.000000 -1.000000 -1.000000
v -0.435488 1.000000 0.435488
v -1.000000 -1.000000 1.000000
v 0.982573 0.762877 0.762877
v -1.000000 1.000000 1.000000
v 0.982573 0.762877 -0.762877
v -1.000000 1.000000 -1.000000
v 0.167890 1.944123 -0.167890
v 0.167890 1.944123 0.167890
v -0.167890 1.944123 -0.167890
v -0.167890 1.944123 0.167890
v 0.435488 1.944123 0.435488
v -0.435488 1.944123 0.435488
v 0.435488 1.944123 -0.435488
v -0.435488 1.944123 -0.435488
v 0.167890 2.388509 -0.167890
v 0.167890 2.388509 0.167890
v -0.167890 2.388509 -0.167890
v -0.167890 2.388509 0.167890
v 1.000000 1.000000 -1.000000
v 1.000000 -1.000000 -1.000000
v 1.000000 1.000000 1.000000
v 1.000000 -1.000000 1.000000
v 1.052227 -0.598738 -0.598738
v 1.052227 -0.598738 0.598738
v 1.052227 0.598738 0.598738
v 1.052227 0.598738 -0.598738
vn -1.0000 -0.0000 -0.0000
vn -0.0000 -0.0000 1.0000
vn -0.0000 -1.0000 -0.0000
vn 0.9205 0.3906 -0.0000
vn -0.0000 -0.0000 -1.0000
vn -0.0000 1.0000 -0.0000
vn 1.0000 -0.0000 -0.0000
vn 0.9973 -0.0000 0.0733
vn 0.9973 -0.0000 -0.0733
vn 0.9973 -0.0733 -0.0000
vn 0.9973 0.0733 -0.0000
vn 0.9205 -0.0000 -0.3906
vn 0.9205 -0.3906 -0.0000
vn 0.9205 -0.0000 0.3906
vt 0.804436 0.570564
vt 0.804436 0.679436
vt 0.375000 0.750000
vt 0.625000 0.750000
vt 0.625000 1.000000
vt 0.375000 1.000000
vt 0.375000 0.000000
vt 0.625000 0.000000
vt 0.625000 0.250000
vt 0.375000 0.250000
vt 0.125000 0.500000
vt 0.375000 0.500000
vt 0.125000 0.750000
vt 0.583657 0.541343
vt 0.583657 0.708657
vt 0.625000 0.500000
vt 0.695564 0.679436
vt 0.875000 0.750000
vt 0.695564 0.570564
vt 0.875000 0.500000
vt 0.770986 0.645986
vt 0.729014 0.645986
vt 0.729014 0.604014
vt 0.770986 0.604014
vt 0.416343 0.541343
vt 0.416343 0.708657
s 0
usemtl Material
f 5/1/1 7/2/1 18/2/1 20/1/1
f 28/3/2 27/4/2 10/5/2 8/6/2
f 8/7/1 10/8/1 12/9/1 6/10/1
f 6/11/3 26/12/3 28/3/3 8/13/3
f 11/14/4 9/15/4 31/15/4 32/14/4
f 6/10/5 12/9/5 25/16/5 26/12/5
f 3/17/6 7/2/6 10/18/6 27/4/6
f 1/19/6 3/17/6 27/4/6 25/16/6
f 7/2/6 5/1/6 12/20/6 10/18/6
f 5/1/6 1/19/6 25/16/6 12/20/6
f 16/21/2 14/22/2 22/22/2 24/21/2
f 7/2/2 3/17/2 17/17/2 18/2/2
f 1/19/5 5/1/5 20/1/5 19/19/5
f 3/17/7 1/19/7 19/19/7 17/17/7
f 14/22/6 16/21/6 18/2/6 17/17/6
f 13/23/6 14/22/6 17/17/6 19/19/6
f 16/21/6 15/24/6 20/1/6 18/2/6
f 15/24/6 13/23/6 19/19/6 20/1/6
f 21/23/6 23/24/6 24/21/6 22/22/6
f 13/23/5 15/24/5 23/24/5 21/23/5
f 14/22/7 13/23/7 21/23/7 22/22/7
f 15/24/1 16/21/1 24/21/1 23/24/1
f 11/14/8 2/25/8 26/12/8 25/16/8
f 4/26/9 9/15/9 27/4/9 28/3/9
f 9/15/10 11/14/10 25/16/10 27/4/10
f 2/25/11 4/26/11 28/3/11 26/12/11
f 29/25/7 32/14/7 31/15/7 30/26/7
f 2/25/12 11/14/12 32/14/12 29/25/12
f 4/26/13 2/25/13 29/25/13 30/26/13
f 9/15/14 4/26/14 30/26/14 31/15/14
